<?xml version="1.0" encoding="UTF-8"?>
<svg width="18px" height="18px" viewBox="0 0 18 18" version="1.1" xmlns="http://www.w3.org/2000/svg" xmlns:xlink="http://www.w3.org/1999/xlink">
    <!-- Generator: Sketch 60.1 (88133) - https://sketch.com -->
    <title>icon/User</title>
    <desc>Created with Sketch.</desc>
    <g id="登录" stroke="none" stroke-width="1" fill="none" fill-rule="evenodd">
        <g transform="translate(-952.000000, -495.000000)" fill="#0849A3" id="编组">
            <g transform="translate(936.000000, 296.000000)">
                <g id="编组-2" transform="translate(0.000000, 184.000000)">
                    <g id="icon/User" transform="translate(13.000000, 12.000000)">
                        <path d="M11.94,13 C9.735,13 7.94,11.205 7.94,9 C7.94,6.794 9.735,5 11.94,5 C14.146,5 15.94,6.794 15.94,9 C15.94,11.205 14.146,13 11.94,13 M15.567,13.771 C17.006,12.676 17.94,10.949 17.94,9 C17.94,5.687 15.253,3 11.94,3 C8.627,3 5.94,5.687 5.94,9 C5.94,10.949 6.874,12.676 8.313,13.771 C5.442,15.039 3.353,17.756 3,21 L5.02,21 C5.5,17.61 8.42,15 11.94,15 C15.46,15 18.38,17.61 18.86,21 L20.88,21 C20.527,17.756 18.438,15.039 15.567,13.771" id="Fill-1"></path>
                    </g>
                </g>
            </g>
        </g>
    </g>
</svg>